# xmcd CD database file
#
# Track frame offsets:
#	150
#	11451
#	37031
#	64399
#	82727
#	109821
#	130102
#	168057
#	193409
#	204457
#	225449
#	248385
#
# Disc length: 3404 seconds
#
# Revision: 0
# Processed by: cddbd v1.5.2PL0 Copyright (c) Steve Scherf et al.
# Submitted via: CDex 1.51
#
DISCID=910d4a0c
DTITLE=Jarmila Xymena Gorna - Hashgachah
DYEAR=2004
DGENRE=Jazz
TTITLE0=a seal upon my heart
TTITLE1=until we find it
TTITLE2=which way
TTITLE3=swansong
TTITLE4=always_Q
TTITLE5=from there to here
TTITLE6=my hope
TTITLE7=approaching your insanity
TTITLE8=dark spell
TTITLE9=the swallow's flight dream
TTITLE10=closing
TTITLE11=a seal upon thy heart
EXTD=YEAR: 2004
EXTT0=
EXTT1=
EXTT2=
EXTT3=
EXTT4=
EXTT5=
EXTT6=
EXTT7=
EXTT8=
EXTT9=
EXTT10=
EXTT11=
PLAYORDER=
